<?xml version="1.0" standalone="no"?>
<!DOCTYPE svg PUBLIC "-//W3C//DTD SVG 20010904//EN"
 "http://www.w3.org/TR/2001/REC-SVG-20010904/DTD/svg10.dtd">
<svg version="1.0" xmlns="http://www.w3.org/2000/svg"
 width="3000.000000pt" height="2000.000000pt" viewBox="0 0 3000.000000 2000.000000"
 preserveAspectRatio="xMidYMid meet">

<g transform="translate(0.000000,2000.000000) scale(0.100000,-0.100000)"
fill="#000000" stroke="none">
<path d="M21197 5363 c-81 -302 -147 -551 -147 -555 0 -5 26 -8 58 -8 l57 0
143 533 c78 292 145 542 149 555 5 21 3 22 -54 22 l-59 0 -147 -547z"/>
<path d="M23760 5903 c-60 -23 -77 -86 -35 -128 49 -49 145 -17 145 49 0 48
-66 96 -110 79z"/>
<path d="M22910 5720 l0 -80 -50 0 -50 0 0 -55 0 -55 50 0 50 0 0 -211 c0
-121 5 -229 11 -254 14 -55 70 -109 130 -125 45 -12 149 -5 149 10 0 5 -5 30
-11 57 -11 48 -12 48 -48 45 -26 -3 -44 3 -64 18 l-27 21 0 220 0 219 70 0 70
0 0 55 0 55 -70 0 -70 0 0 80 0 80 -70 0 -70 0 0 -80z"/>
<path d="M23340 5720 l0 -80 -50 0 -50 0 0 -55 0 -55 50 0 50 0 0 -230 c0
-175 3 -239 14 -264 28 -68 130 -115 221 -102 49 8 50 10 39 79 -6 36 -8 37
-49 37 -27 0 -51 7 -66 19 -24 19 -24 22 -27 240 l-3 221 70 0 71 0 0 55 0 55
-70 0 -70 0 0 80 0 80 -65 0 -65 0 0 -80z"/>
<path d="M21722 5639 c-153 -26 -237 -145 -187 -266 32 -76 74 -101 236 -139
121 -28 159 -52 159 -98 0 -39 -43 -82 -96 -95 -81 -20 -164 7 -190 63 l-16
32 -62 -9 c-33 -5 -63 -10 -64 -12 -2 -2 5 -23 15 -47 43 -96 143 -144 288
-136 110 6 184 41 227 107 27 41 29 53 26 113 -3 58 -8 71 -33 99 -41 43 -84
62 -195 89 -122 29 -155 45 -170 80 -28 67 42 124 144 117 55 -3 62 -7 97 -45
35 -40 38 -42 82 -36 68 10 72 15 48 62 -50 97 -169 144 -309 121z"/>
<path d="M22400 5640 c-107 -19 -174 -69 -222 -168 -32 -64 -33 -71 -33 -187
0 -116 1 -123 33 -188 60 -120 157 -173 311 -165 72 3 95 9 140 33 58 32 106
84 116 125 6 25 4 26 -55 36 l-60 10 -19 -31 c-52 -88 -237 -87 -299 2 -23 34
-42 87 -42 119 l0 24 246 0 246 0 -4 88 c-5 107 -37 182 -100 236 -64 55 -170
82 -258 66z m105 -111 c68 -19 125 -88 125 -154 l0 -25 -180 0 c-203 0 -197
-3 -161 75 23 50 58 83 108 100 47 17 58 18 108 4z"/>
<path d="M24271 5639 c-52 -10 -101 -41 -127 -81 -10 -15 -22 -28 -26 -28 -5
0 -8 25 -8 55 l0 55 -65 0 -65 0 0 -350 0 -350 70 0 70 0 0 237 c0 232 0 237
24 278 63 106 225 99 272 -12 11 -24 14 -91 14 -268 l0 -235 65 0 65 0 0 259
c0 283 -6 319 -58 374 -55 58 -144 84 -231 66z"/>
<path d="M24900 5639 c-98 -19 -182 -102 -215 -212 -19 -65 -19 -199 0 -264
24 -82 73 -143 140 -178 50 -26 69 -30 134 -29 90 0 123 15 175 76 l36 43 0
-95 c0 -113 -16 -153 -76 -184 -56 -30 -167 -28 -216 2 -20 12 -43 33 -52 46
l-15 24 -56 -21 c-30 -12 -55 -27 -55 -34 0 -23 63 -84 114 -111 43 -22 67
-27 153 -30 123 -5 192 13 254 66 79 68 79 65 79 510 l0 392 -65 0 -64 0 -3
-62 -3 -62 -28 40 c-48 71 -139 103 -237 83z m181 -132 c19 -12 45 -43 59 -67
22 -40 25 -57 25 -145 0 -85 -3 -106 -23 -143 -37 -69 -104 -100 -188 -87
-110 16 -175 150 -145 297 23 110 86 168 181 168 43 0 65 -6 91 -23z"/>
<path d="M25629 5640 c-80 -14 -154 -63 -185 -122 -18 -35 -18 -121 0 -156 33
-63 87 -93 227 -126 122 -29 153 -49 157 -100 6 -64 -46 -99 -144 -100 -71 0
-105 17 -135 68 -19 32 -20 33 -67 25 -26 -4 -53 -8 -59 -8 -21 -1 -15 -34 15
-82 44 -68 114 -102 223 -107 60 -3 102 1 140 12 174 50 228 245 94 338 -26
19 -80 38 -155 56 -127 31 -155 43 -170 72 -35 65 28 130 127 130 56 0 108
-27 125 -66 11 -24 15 -25 56 -19 84 13 87 18 43 87 -49 78 -172 119 -292 98z"/>
<path d="M23720 5290 l0 -350 65 0 65 0 0 350 0 350 -65 0 -65 0 0 -350z"/>
</g>
</svg>
